<?xml version="1.0" standalone="no"?>
<!DOCTYPE svg PUBLIC "-//W3C//DTD SVG 20010904//EN"
 "http://www.w3.org/TR/2001/REC-SVG-20010904/DTD/svg10.dtd">
<svg version="1.0" xmlns="http://www.w3.org/2000/svg"
 width="24.000000pt" height="24.000000pt" viewBox="0 0 24.000000 24.000000"
 preserveAspectRatio="xMidYMid meet">

<g transform="translate(0.000000,24.000000) scale(0.100000,-0.100000)"
fill="#000000" stroke="none">
<path d="M81 201 c-24 -24 -18 -66 10 -68 10 -1 19 3 19 9 0 5 6 8 14 5 8 -3
17 -3 21 1 4 4 12 7 18 7 19 0 18 20 -3 43 -25 27 -54 28 -79 3z"/>
<path d="M90 100 c-6 -11 -17 -20 -25 -20 -17 0 -35 -30 -35 -59 0 -15 6 -21
23 -21 50 0 64 10 64 46 0 19 -5 34 -11 34 -7 0 -7 3 -1 8 14 10 17 32 5 32
-5 0 -14 -9 -20 -20z m0 -55 c11 -13 10 -14 -4 -9 -9 3 -16 10 -16 15 0 13 6
11 20 -6z"/>
<path d="M165 38 c-13 -31 -12 -33 6 -36 11 -2 27 -1 36 2 13 6 13 9 -4 24
-11 9 -18 23 -16 30 10 27 -9 10 -22 -20z"/>
</g>
</svg>
